<svg viewBox="0 0 512 512" fill="none" xmlns="http://www.w3.org/2000/svg" xmlns:anim="http://www.w3.org/2000/anim" anim="" anim:transform-origin="50% 50%" anim:duration="2.1" anim:ease="ease-out">
  <g id="Group 3936">
    <g id="Group 3928">
      <g id="Frame 1">
        <rect width="512" height="512" rx="25" fill="white"></rect>
        <g id="Group 3884" anim:opacity="0[0:0.1:1:ease-in-out]" anim:scale="0.8[0:1:1:ease-in-out][1.1:2.1:0.8:ease-in-out]">
          <path id="Vector" d="M352.92 186.824L352.919 186.825C348.926 190.966 344.078 193.064 338.318 193.138C332.558 193.213 327.663 191.233 323.575 187.18L323.574 187.179C319.486 183.135 317.417 178.228 317.349 172.4C317.28 166.571 319.233 161.61 323.226 157.458C327.218 153.318 332.065 151.225 337.825 151.161C343.586 151.096 348.482 153.072 352.57 157.105C356.658 161.148 358.727 166.06 358.795 171.899C358.864 177.739 356.911 182.694 352.92 186.824ZM307.253 226.309L307.252 226.31L238.889 297.216C235.906 300.31 232.331 301.87 228.113 301.926C223.897 301.981 220.288 300.509 217.233 297.478L217.232 297.477C214.177 294.456 212.64 290.839 212.59 286.572C212.54 282.306 213.991 278.647 216.975 275.542L285.337 204.637C285.742 204.217 286.079 203.85 286.359 203.545C286.645 203.233 286.858 203.002 287.037 202.824C287.125 202.738 287.193 202.677 287.243 202.635C287.355 202.724 287.505 202.865 287.721 203.087C287.866 203.237 288.06 203.444 288.291 203.691C288.702 204.131 289.232 204.698 289.821 205.296C291.754 207.253 293.45 208.858 295.064 210.37C295.303 210.594 295.541 210.816 295.776 211.036C297.127 212.299 298.431 213.518 299.794 214.862C302.85 218.223 303.824 219.199 306.368 221.66C306.765 222.043 307.126 222.375 307.445 222.665C307.507 222.721 307.567 222.775 307.625 222.828C307.869 223.049 308.078 223.239 308.262 223.414C308.752 223.88 308.877 224.081 308.907 224.175C308.912 224.189 308.914 224.196 308.908 224.228C308.897 224.277 308.863 224.382 308.748 224.566C308.508 224.953 308.049 225.486 307.253 226.309Z" fill="#32FE88" stroke="white" stroke-width="2"></path>
          <path id="Polygon 9" d="M206.541 307.089L214.228 280.401L241.281 272.47L232.705 300.699L206.541 307.089Z" fill="#32FE88" stroke="white" stroke-width="3"></path>
          <path id="Vector_2" d="M367.437 218.42V215.082L365.602 217.87L341.109 255.08L340.944 255.33V255.63V341.453H171.493V169.807H256.219H256.525L256.778 169.635L293.518 144.829L296.226 143H292.958H170.493C156.335 143 145 154.499 145 168.807V342.453C145 349.294 147.683 355.856 152.462 360.697C157.242 365.538 163.728 368.26 170.493 368.26H341.944C348.71 368.26 355.195 365.538 359.975 360.697C364.754 355.856 367.437 349.294 367.437 342.453V218.42Z" fill="#32FE88" stroke="white" stroke-width="2"></path>
        </g>
      </g>
    </g>
  </g>
</svg>